<svg xmlns="http://www.w3.org/2000/svg" width="175" height="43" viewBox="0 0 175 43" fill="none">
  <path d="M58.1078 14.4106C62.2515 14.4108 65.6173 17.7217 65.7894 21.8647H65.806V26.688H66.6722V29.9761H62.5511V28.5366C61.2964 29.4375 59.7661 29.976 58.1078 29.9761C53.8548 29.9761 50.4095 26.4904 50.4095 22.1929C50.4097 17.8948 53.9283 14.4106 58.1078 14.4106ZM58.1078 17.6987C55.654 17.6987 53.6637 19.7108 53.6635 22.1929C53.6635 24.6752 55.6538 26.688 58.1078 26.688C60.5616 26.6878 62.5511 24.6771 62.5511 22.1929C62.5509 19.7088 60.5615 17.6989 58.1078 17.6987Z" fill="white" stroke="white" stroke-width="0.219171"/>
  <path d="M73.3392 8.83032V15.9758C74.5919 15.1238 76.1048 14.6185 77.7426 14.6184C82.0398 14.6184 85.5257 18.0544 85.5258 22.2971C85.5258 26.5399 82.0398 29.9758 77.7426 29.9758C76.1046 29.9758 74.592 29.4696 73.3392 28.6174V29.9758H69.9603V8.83032H73.3392ZM77.7426 17.8655C75.5655 17.8657 73.7529 19.3919 73.3392 21.4163V23.177C73.7524 25.2019 75.5651 26.7296 77.7426 26.7297C80.2272 26.7297 82.2377 24.7445 82.2377 22.2971C82.2376 19.8498 80.2271 17.8655 77.7426 17.8655Z" fill="white" stroke="white" stroke-width="0.219171"/>
  <path d="M95.6348 14.4106C99.7784 14.4108 103.144 17.7217 103.316 21.8647H103.333V26.688H104.199V29.9761H100.078V28.5366C98.8234 29.4375 97.2931 29.976 95.6348 29.9761C91.3817 29.9761 87.9365 26.4904 87.9365 22.1929C87.9367 17.8948 91.4553 14.4106 95.6348 14.4106ZM95.6348 17.6987C93.1809 17.6987 91.1906 19.7108 91.1904 22.1929C91.1904 24.6752 93.1808 26.688 95.6348 26.688C98.0886 26.6878 100.078 24.6771 100.078 22.1929C100.078 19.7088 98.0885 17.6989 95.6348 17.6987Z" fill="white" stroke="white" stroke-width="0.219171"/>
  <path d="M111.044 20.147C111.954 16.7625 115.026 14.0819 118.703 14.0815L119.222 14.0952C119.365 14.1035 119.48 14.1146 119.57 14.1265C119.66 14.1383 119.728 14.1516 119.777 14.1626C119.801 14.1681 119.821 14.1737 119.837 14.1782C119.845 14.1805 119.853 14.1822 119.859 14.1841L119.871 14.188L119.873 14.189H119.875V14.1899L120.215 14.3091L120.163 14.6665L119.724 17.6587L119.668 18.0366L119.287 18.0337H119.244C119.215 18.0335 119.173 18.033 119.122 18.0327C119.057 18.0324 118.976 18.0329 118.883 18.0327L118.882 18.0337H118.701C118.072 18.0338 117.474 18.1814 116.941 18.4458L116.9 18.4819L116.868 18.5103L116.83 18.5317C115.584 19.2428 114.739 20.6065 114.739 22.1792C114.739 24.4937 116.568 26.353 118.798 26.353H118.865C119.145 26.3482 119.422 26.3135 119.69 26.2515L120.04 26.1704L120.188 26.4976L121.469 29.3257L121.671 29.7729L121.205 29.9233C120.465 30.1625 119.678 30.2968 118.861 30.3032L118.885 30.356L118.148 30.3042C114.725 30.0614 111.909 27.6036 111.044 24.3286V30.3042H107.377V8.50049H111.044V20.147Z" fill="white"/>
  <path d="M130.096 14.4106C134.24 14.4108 137.606 17.7217 137.778 21.8647H137.794V26.688H138.66V29.9761H134.539V28.5366C133.285 29.4375 131.754 29.976 130.096 29.9761C125.843 29.9761 122.398 26.4904 122.398 22.1929C122.398 17.8948 125.916 14.4106 130.096 14.4106ZM130.096 17.6987C127.642 17.6987 125.652 19.7108 125.652 22.1929C125.652 24.6752 127.642 26.688 130.096 26.688C132.55 26.6878 134.539 24.6771 134.539 22.1929C134.539 19.7088 132.55 17.6989 130.096 17.6987Z" fill="white" stroke="white" stroke-width="0.219171"/>
  <path d="M159.509 14.4106C163.653 14.4108 167.019 17.7217 167.191 21.8647H167.208V26.688H168.074V29.9761H163.953V28.5366C162.698 29.4375 161.168 29.976 159.509 29.9761C155.256 29.9761 151.811 26.4904 151.811 22.1929C151.811 17.8948 155.33 14.4106 159.509 14.4106ZM159.509 17.6987C157.055 17.6987 155.065 19.7108 155.065 22.1929C155.065 24.6752 157.055 26.688 159.509 26.688C161.963 26.6878 163.953 24.6771 163.953 22.1929C163.952 19.7088 161.963 17.6989 159.509 17.6987Z" fill="white" stroke="white" stroke-width="0.219171"/>
  <path d="M172.468 18.7054C173.624 18.7054 174.561 17.7685 174.561 16.6127C174.561 15.457 173.624 14.52 172.468 14.52C171.312 14.52 170.375 15.457 170.375 16.6127C170.375 17.7685 171.312 18.7054 172.468 18.7054Z" fill="white"/>
  <path d="M174.222 20.1006V27.0762H174.999V29.8662H170.734V20.1006H174.222Z" fill="white"/>
  <path d="M145.343 20.9587C146.234 20.9589 146.957 21.6816 146.957 22.573C146.957 23.4643 146.234 24.1871 145.343 24.1873C144.451 24.1873 143.729 23.4644 143.729 22.573C143.729 21.6814 144.451 20.9587 145.343 20.9587Z" fill="white" stroke="white" stroke-width="0.438342"/>
  <path d="M14.1141 7.0188C17.2364 2.80842 22.2908 -0.46342 29.1473 0.0539551C30.5745 0.161649 31.9719 0.547136 33.2469 1.20728C35.1247 2.17834 37.7301 4.05494 39.2362 7.42212C40.7327 10.768 41.1049 15.5008 38.7372 22.1223L38.9178 22.592C40.7243 26.8321 41.228 31.969 37.868 37.2102C37.0786 38.4418 35.9197 39.4284 34.7538 40.2053C32.9889 41.381 30.0641 42.7103 26.371 42.3567C22.705 42.0056 18.3699 40.0043 13.7284 34.7336C9.0158 34.1902 4.07653 31.9331 1.03796 26.2073L1.03015 26.1917C0.419046 24.9422 0.135788 23.9047 0.0291748 22.2893C-0.106401 20.2348 0.170942 17.1667 2.15125 14.2278C4.11569 11.3125 7.71067 8.59179 14.0614 7.09009C14.0788 7.06634 14.0966 7.04248 14.1141 7.0188ZM25.3993 14.7522C25.273 14.8688 25.1022 15.0554 24.9139 15.3254C24.639 15.7199 24.3605 16.2383 24.1483 16.8381C23.7278 18.0272 23.5878 19.4837 24.1854 20.9338C25.4289 21.3368 26.2638 22.0645 26.7841 22.55C28.8779 24.5048 29.2536 26.5941 28.8319 28.387C28.4208 30.1343 27.2677 31.5477 26.3798 32.2698C25.6036 32.9008 24.0423 33.5969 22.0917 34.1077C20.1447 34.6174 17.7488 34.9569 15.2294 34.8499C17.1664 36.9199 19.0248 38.3881 20.7733 39.4016C24.9126 40.2676 28.1793 39.5433 30.5106 37.9172C32.8547 36.2822 34.3081 33.6985 34.7391 30.7629C35.5505 25.2358 32.7217 18.4782 25.3993 14.7522ZM13.1893 8.3811C10.9748 8.98789 9.15643 9.74979 7.66589 10.6086C4.82445 13.7708 3.81218 16.9751 4.05554 19.8167C4.29948 22.664 5.81005 25.2139 8.1366 27.0549C12.5267 30.5284 19.8139 31.4538 26.7147 26.9436C26.6728 26.7806 26.5999 26.5615 26.4764 26.2981C26.2723 25.8627 25.9623 25.362 25.5487 24.8782C24.7208 23.9096 23.5137 23.0509 21.9354 22.8547L21.9374 22.8362C21.2478 23.368 20.4406 23.7161 19.62 23.9631C16.4045 24.9322 14.2147 24.3297 12.7802 23.2063C11.3773 22.1076 10.779 20.5746 10.5917 19.801C9.85147 16.7451 10.7721 12.2798 13.1893 8.3811ZM33.2821 5.82544C30.6941 4.6129 27.7303 4.64599 24.9725 5.74048C19.7781 7.8022 15.3378 13.6344 15.7762 21.844C15.9331 21.8838 16.1407 21.9226 16.3983 21.9446C16.8773 21.9855 17.4661 21.968 18.0917 21.8518C19.3444 21.6191 20.6913 21.0021 21.6503 19.7336L21.6815 19.7571C21.5192 18.8462 21.5823 17.9107 21.8085 17.0247C22.6394 13.7695 24.2847 12.2224 25.9891 11.5842C27.5505 10.9997 29.0723 11.2117 29.871 11.3997L30.0214 11.4368L30.0321 11.4397L30.0428 11.4436H30.0438L30.0585 11.4485C30.0684 11.4515 30.0825 11.4559 30.0995 11.4612C30.1335 11.4718 30.18 11.4861 30.2294 11.5022C30.3057 11.5271 30.4543 11.5755 30.538 11.6174C33.1214 12.9128 35.167 15.5648 36.5428 17.8059C37.2306 18.9262 37.7634 19.9644 38.1229 20.719C39.0329 17.8976 39.4027 15.479 39.4003 13.4084C38.0757 9.45411 35.833 7.02061 33.2821 5.82544Z" fill="white"/>
</svg>